<svg xmlns="http://www.w3.org/2000/svg" style="enable-background:new 0 0 150 150" viewBox="0 0 150 150" xml:space="preserve"><path d="M27 2.7h95.8C137.3 2.7 149 14.5 149 29v92c0 14.5-11.8 26.3-26.3 26.3H27C12.5 147.3.7 135.5.7 121V29C.7 14.5 12.5 2.7 27 2.7z" style="fill:#fa0f00"/><path d="M116 111.4H98.4c-1.6 0-3-.9-3.6-2.3L75.7 64.4c-.1-.4-.6-.7-1-.6-.3.1-.5.3-.6.6L62.2 92.8c-.2.5 0 1.1.5 1.3.1.1.3.1.4.1h13.1c.8 0 1.5.5 1.9 1.2l5.7 12.8c.5 1.2-.1 2.6-1.2 3.1-.3.1-.6.2-.9.2H33.9c-1.2 0-2.2-1-2.2-2.2 0-.3.1-.6.2-.8l30.3-72.2c.6-1.6 2.2-2.6 3.9-2.6h17.5c1.7 0 3.2 1 3.9 2.6l30.5 72.2c.5 1.1 0 2.4-1.1 2.9h-.9z" style="fill:#fff"/></svg>