<svg xmlns="http://www.w3.org/2000/svg" width="155.157" height="42" viewBox="0 0 155.157 42">
  <g id="angular" transform="translate(-5 -15.223)">
    <path id="Path_461" data-name="Path 461" d="M37.36,43.58V24.5h2.454L51.479,39.865V24.5h2.333V43.58H51.358L39.679,28.065V43.58H37.346Zm35.455-.757a14.175,14.175,0,0,1-4.969.879q-10.363,0-10.364-9.94c0-6.272,3.333-9.425,10.014-9.425a17.628,17.628,0,0,1,5.332.79v2.121a13.9,13.9,0,0,0-5.061-.939c-5.212,0-7.818,2.485-7.818,7.394,0,5.3,2.576,7.941,7.7,7.941a13.384,13.384,0,0,0,2.728-.333V34.917h2.454v7.909Zm3.939-6.607V24.49h2.454V36.216q0,5.5,5.5,5.5c3.636,0,5.5-1.834,5.5-5.5V24.49h2.454V36.216c0,5-2.638,7.515-7.941,7.515s-7.941-2.515-7.941-7.515ZM99.483,24.5v17.1H109.5v2H97.043V24.5H99.5ZM113.03,43.592h-2.576L119.936,22l9.485,21.606h-2.728l-2.454-6h-6.3l.667-2h4.818l-3.576-8.636-6.82,16.637Zm19.03,0V24.5h8.153c3.636,0,5.454,1.515,5.454,4.576,0,2.485-1.788,4.333-5.332,5.5l6.545,9h-3.244L137.575,35V33.425c3.636-.575,5.5-1.969,5.5-4.212,0-1.757-.987-2.638-3.03-2.638h-5.454v17h-2.515Z" transform="translate(13.278 2.782)" fill="#b52e31"/>
    <g id="Group_46" data-name="Group 46">
      <path id="Path_462" data-name="Path 462" d="M5,22.192l19.545-6.968,20.061,6.848L41.362,47.92l-16.817,9.3L8,48.054Z" transform="translate(0 0)" fill="#e23237"/>
      <path id="Path_463" data-name="Path 463" d="M38.918,22.071,18.857,15.223v42l16.819-9.3L38.92,22.071Z" transform="translate(5.688)" fill="#b52e31"/>
      <path id="Path_464" data-name="Path 464" d="M22.426,18.707,10.242,45.784l4.546-.09,2.454-6.122H28.121l2.68,6.182,4.333.09-12.7-27.152Zm.028,8.7,4.121,8.607H18.846l3.608-8.6Z" transform="translate(2.152 1.424)" fill="#fff"/>
    </g>
  </g>
</svg>
