<?xml version="1.0" encoding="utf-8"?>
<!-- Generator: Adobe Illustrator 25.0.1, SVG Export Plug-In . SVG Version: 6.00 Build 0)  -->
<svg version="1.0" id="katman_1" xmlns="http://www.w3.org/2000/svg" xmlns:xlink="http://www.w3.org/1999/xlink" x="0px" y="0px"
	 viewBox="0 0 800 600" style="enable-background:new 0 0 800 600;" xml:space="preserve">
<style type="text/css">
	.st0{fill:#F25022;}
	.st1{fill:#7FBA00;}
	.st2{fill:#00A4EF;}
	.st3{fill:#FFB900;}
</style>
<path d="M354.5,312.5l22.2,58h-11.3l-5.2-14.5H337l-5,14.4h-11.2l22.2-58L354.5,312.5z M348.4,323.2l-8.7,24.4h17.7l-8.7-24.4H348.4
	z"/>
<path d="M381.6,328.9h33.7v3.9l-22.1,29.9h22.3v7.8H380v-4.7l21.8-29.2h-20.2V328.9z"/>
<path d="M457.7,328.9v41.6h-10V365h-0.2c-1.3,1.9-3.2,3.4-5.3,4.4c-2.3,1.1-4.8,1.6-7.4,1.6c-2.1,0.1-4.1-0.1-6-0.9
	c-1.9-0.7-3.7-1.8-5.1-3.3c-2.6-2.7-3.9-7-3.9-12.8v-25.2H430V353c-0.2,2.8,0.5,5.6,2.1,7.9c0.8,0.9,1.8,1.6,2.9,2.1
	c1.1,0.5,2.3,0.6,3.5,0.6c1.3,0.1,2.5-0.2,3.7-0.7c1.2-0.5,2.2-1.3,3-2.2c1.8-2.2,2.7-4.9,2.6-7.6v-24.1H457.7z"/>
<path d="M487.7,328.2c0.7,0,1.4,0,2.1,0.2c0.5,0.1,1.1,0.2,1.6,0.4v9.9c-0.7-0.5-1.5-0.8-2.3-1.1c-1.2-0.4-2.4-0.5-3.6-0.5
	c-1.2,0-2.4,0.3-3.4,0.8c-1.1,0.5-2,1.3-2.7,2.2c-1.9,2.7-2.8,6-2.5,9.4v21h-9.9v-41.6h10v6.5h0.2c0.8-2.1,2.2-4,4.1-5.3
	C483,328.8,485.3,328.2,487.7,328.2z"/>
<path d="M527.2,360v8.1c-2,1.2-4.2,2-6.5,2.5c-2.8,0.6-5.6,1-8.5,1c-2.8,0.2-5.5-0.3-8.1-1.2c-2.6-1-4.9-2.5-6.9-4.4
	c-3.6-3.7-5.4-9-5.4-15.7c-0.2-5.8,1.8-11.5,5.7-15.9c1.8-2,4-3.6,6.5-4.7c2.5-1.1,5.2-1.6,8-1.5c2.5-0.1,5,0.3,7.4,1.2
	c2.3,0.9,4.5,2.3,6.2,4.1c3.2,3.5,4.9,8.4,4.9,14.6v4.8h-28.9c0.4,4.2,1.8,7.1,4.1,8.7c2.6,1.7,5.7,2.6,8.9,2.5
	c2.3,0,4.6-0.3,6.8-1.1C523.5,362.2,525.4,361.2,527.2,360L527.2,360z M520.8,345.5c0.2-2.7-0.6-5.3-2.3-7.4c-0.8-0.9-1.8-1.5-2.9-2
	c-1.1-0.4-2.3-0.6-3.5-0.6c-2.4,0-4.7,0.9-6.4,2.5c-2,2-3.4,4.6-3.8,7.4H520.8z"/>
<path d="M388,232.7v58h-10.2v-45.5h-0.2l-18.3,45.5h-6.8l-18.7-45.5h-0.1v45.5h-9.5v-58h14.7l16.9,42.9h0.3l17.8-43L388,232.7z
	 M396.6,237.1c0-0.8,0.1-1.5,0.4-2.2c0.3-0.7,0.8-1.3,1.3-1.8c1.2-1.1,2.7-1.7,4.3-1.7c1.6,0,3.1,0.6,4.3,1.7c0.5,0.5,1,1.1,1.3,1.8
	c0.3,0.7,0.4,1.4,0.4,2.2c0,0.7-0.1,1.5-0.4,2.2c-0.3,0.7-0.8,1.3-1.3,1.8c-1.2,1.1-2.7,1.6-4.3,1.6c-0.8,0-1.6-0.1-2.3-0.4
	c-0.7-0.3-1.4-0.7-2-1.2c-0.6-0.5-1-1.1-1.3-1.8C396.7,238.6,396.6,237.9,396.6,237.1L396.6,237.1z M407.5,249.1v41.6h-9.9v-41.6
	H407.5z M437.7,283.6c1.7,0,3.3-0.4,4.9-1c1.8-0.7,3.4-1.6,4.9-2.7v9.2c-1.7,0.9-3.5,1.6-5.4,2c-2.2,0.5-4.4,0.7-6.6,0.7
	c-2.8,0.1-5.6-0.3-8.2-1.3c-2.6-1-5-2.5-7-4.5c-2-1.9-3.5-4.3-4.5-6.8c-1-2.6-1.5-5.3-1.4-8.1c-0.2-6,1.9-12,6-16.5
	c4-4.3,9.6-6.5,16.9-6.5c1.9,0,3.8,0.2,5.6,0.7c1.6,0.4,3.1,0.9,4.5,1.6v9.4c-1.4-1.1-3-1.9-4.7-2.6c-1.6-0.6-3.2-0.9-4.9-0.9
	c-1.8-0.1-3.5,0.2-5.2,0.9c-1.6,0.7-3.1,1.7-4.3,2.9c-2.5,2.8-3.8,6.4-3.6,10.2c-0.1,1.8,0.1,3.6,0.7,5.3c0.6,1.7,1.5,3.2,2.7,4.6
	c1.3,1.2,2.7,2.1,4.4,2.7C434.3,283.5,436,283.7,437.7,283.6L437.7,283.6z M475.8,248.4c0.7,0,1.4,0,2.1,0.2
	c0.5,0.1,1.1,0.2,1.6,0.4v9.9c-0.7-0.5-1.5-0.8-2.3-1.1c-1.2-0.4-2.4-0.5-3.6-0.5c-1.2,0-2.4,0.3-3.4,0.8c-1.1,0.5-2,1.3-2.7,2.2
	c-1.9,2.8-2.8,6.1-2.5,9.4v21H455v-41.6h9.9v6.6h0.2c0.8-2.1,2.2-4,4.1-5.3C471.1,249.1,473.4,248.4,475.8,248.4L475.8,248.4z
	 M480,270.5c-0.2-3,0.3-5.9,1.3-8.8c1-2.8,2.6-5.4,4.6-7.6c3.9-4,9.4-6,16.4-6c2.9-0.2,5.7,0.2,8.4,1.2c2.7,1,5.1,2.5,7.1,4.5
	c3.9,4.3,5.9,9.9,5.6,15.7c0.1,2.9-0.3,5.9-1.3,8.6c-1,2.8-2.6,5.3-4.6,7.5c-2.1,2-4.6,3.6-7.4,4.7c-2.8,1-5.7,1.5-8.7,1.3
	c-2.9,0.1-5.7-0.3-8.4-1.3c-2.7-1-5.1-2.5-7.2-4.4c-2-2-3.5-4.4-4.5-7.1C480.4,276.2,479.9,273.4,480,270.5L480,270.5z M490.4,270.2
	c-0.3,3.6,0.8,7.1,3,10c1.1,1.2,2.4,2.1,3.9,2.7c1.5,0.6,3.1,0.9,4.7,0.8c1.6,0.1,3.1-0.2,4.5-0.8c1.4-0.6,2.7-1.5,3.7-2.7
	c2.1-3,3.1-6.6,2.8-10.2c0.3-3.6-0.8-7.2-2.9-10.1c-1-1.1-2.3-2-3.8-2.6c-1.4-0.6-3-0.8-4.5-0.7c-1.6-0.1-3.2,0.2-4.7,0.8
	c-1.5,0.6-2.8,1.6-3.8,2.8C491.2,263,490.2,266.6,490.4,270.2L490.4,270.2z M538.2,260c0,0.6,0.1,1.2,0.3,1.8
	c0.2,0.6,0.6,1.1,1.1,1.5c1.8,1.3,3.8,2.3,6,3c3.2,1.1,6.1,2.9,8.4,5.3c1.6,2,2.5,4.5,2.4,7.1c0.1,1.8-0.3,3.6-1.1,5.3
	c-0.8,1.6-2,3.1-3.4,4.2c-3.6,2.5-8,3.8-12.4,3.6c-2,0-3.9-0.2-5.8-0.6c-1.9-0.3-3.7-0.9-5.4-1.6v-9.6c1.8,1.2,3.8,2.2,5.8,3
	c1.8,0.7,3.7,1.1,5.7,1.1c1.7,0.1,3.4-0.2,5-0.9c0.5-0.3,1-0.8,1.3-1.3c0.3-0.5,0.4-1.2,0.3-1.8c0-0.7-0.1-1.3-0.4-1.9
	c-0.3-0.6-0.7-1.1-1.2-1.5c-1.9-1.4-4.1-2.4-6.3-3.2c-3-1.1-5.6-2.8-7.8-5.1c-1.6-2.1-2.4-4.6-2.3-7.2c0-1.8,0.4-3.5,1.2-5.2
	c0.8-1.6,2-3,3.4-4.1c3.4-2.5,7.5-3.8,11.8-3.6c1.7,0,3.3,0.2,5,0.5c1.6,0.3,3.1,0.7,4.6,1.2v9.3c-1.4-0.9-3-1.7-4.6-2.2
	c-1.7-0.6-3.4-0.9-5.2-0.9c-1.6-0.1-3.1,0.3-4.4,1.1c-0.5,0.3-0.9,0.8-1.2,1.3C538.3,258.9,538.2,259.5,538.2,260L538.2,260z
	 M560.6,270.5c-0.2-3,0.3-5.9,1.3-8.8c1-2.8,2.6-5.4,4.6-7.6c3.9-4,9.4-6,16.4-6c2.9-0.2,5.7,0.2,8.4,1.2c2.7,1,5.1,2.5,7.1,4.5
	c3.9,4.3,5.9,9.9,5.6,15.7c0.2,2.9-0.3,5.9-1.3,8.6c-1,2.8-2.6,5.3-4.6,7.5c-2.1,2-4.6,3.6-7.4,4.7c-2.8,1-5.7,1.5-8.7,1.3
	c-2.9,0.1-5.7-0.3-8.4-1.3c-2.7-1-5.1-2.5-7.2-4.4c-2-2-3.5-4.4-4.5-7.1C560.9,276.2,560.5,273.4,560.6,270.5L560.6,270.5z
	 M570.9,270.2c-0.2,3.6,0.8,7.1,3,10c1.1,1.2,2.4,2.1,3.9,2.7c1.5,0.6,3.1,0.9,4.7,0.8c1.6,0.1,3.1-0.2,4.5-0.8
	c1.4-0.6,2.7-1.5,3.7-2.7c2.1-3,3.1-6.6,2.8-10.2c0.3-3.6-0.8-7.2-2.9-10.1c-1-1.1-2.3-2-3.7-2.6c-1.4-0.6-3-0.8-4.5-0.7
	c-1.6-0.1-3.2,0.2-4.7,0.8c-1.5,0.6-2.8,1.6-3.8,2.8C571.8,263,570.7,266.6,570.9,270.2L570.9,270.2z M637,257.1h-14.8v33.6h-10.1
	v-33.6h-7v-8h7v-5.7c-0.1-2,0.3-4,1-5.8c0.7-1.9,1.9-3.5,3.3-4.9c1.5-1.4,3.2-2.5,5.1-3.2c1.9-0.7,3.9-1.1,6-1
	c1.1,0,2.1,0.1,3.2,0.2c0.8,0.1,1.7,0.3,2.5,0.5v8.5c-0.6-0.3-1.1-0.5-1.7-0.7c-0.9-0.3-1.9-0.4-2.8-0.4c-0.9-0.1-1.8,0.1-2.6,0.4
	c-0.8,0.3-1.6,0.8-2.2,1.5c-1.3,1.6-1.9,3.7-1.7,5.7v5H637v-9.4l10-3v12.3H657v8h-10.1v19.5c-0.2,1.9,0.3,3.8,1.4,5.4
	c0.6,0.6,1.3,1,2,1.3c0.8,0.3,1.6,0.4,2.4,0.3c0.7,0,1.4-0.2,2.1-0.4c0.7-0.2,1.5-0.5,2.1-1v8.1c-1,0.5-2.1,0.8-3.2,1
	c-1.4,0.3-2.9,0.5-4.3,0.5c-1.7,0.1-3.4-0.1-5.1-0.7c-1.6-0.6-3.1-1.5-4.4-2.6c-2.3-2.8-3.4-6.3-3.1-9.9L637,257.1z"/>
<path class="st0" d="M208.9,232.7h-66.5v65.5h66.5V232.7z"/>
<path class="st1" d="M282.3,232.7h-66.5v65.5h66.5V232.7z"/>
<path class="st2" d="M208.9,305h-66.5v65.5h66.5V305z"/>
<path class="st3" d="M282.3,305h-66.5v65.5h66.5V305z"/>
</svg>
