<svg xmlns="http://www.w3.org/2000/svg" xmlns:xlink="http://www.w3.org/1999/xlink" width="57.218" height="45" viewBox="0 0 57.218 45">
  <defs>
    <clipPath id="clip-path">
      <rect id="Rectangle_50" data-name="Rectangle 50" width="57.217" height="45" fill="none"/>
    </clipPath>
  </defs>
  <g id="Group_10" data-name="Group 10" opacity="0.99">
    <g id="Group_9" data-name="Group 9" clip-path="url(#clip-path)">
      <path id="Path_434" data-name="Path 434" d="M9.967,0H47.25a9.972,9.972,0,0,1,9.968,9.967V35.032A9.972,9.972,0,0,1,47.25,45H9.967A9.972,9.972,0,0,1,0,35.032V9.967A9.972,9.972,0,0,1,9.967,0" fill="#00a1e0"/>
      <path id="Path_435" data-name="Path 435" d="M10.248,15.261H5.911L5.09,17.733H2.46l4.466-12H9.216l4.494,12H11.08Zm-3.656-2H9.567L8.06,8.758Zm10.71.256v4.219H14.829v-12h4.68a5.416,5.416,0,0,1,2.377.495,3.671,3.671,0,0,1,1.578,1.406,3.927,3.927,0,0,1,.563,2.073A3.445,3.445,0,0,1,22.82,12.49a5.037,5.037,0,0,1-3.35,1.024Zm0-2h2.208a2.175,2.175,0,0,0,1.5-.461,1.68,1.68,0,0,0,.515-1.328A1.961,1.961,0,0,0,21,8.3a1.939,1.939,0,0,0-1.434-.562H17.3Zm15.632,1.029H28.186v3.206h5.569v1.986H25.714v-12h8.027v2H28.186V10.6h4.747ZM39.5,9.88l2.25-4.137h2.841L41.1,11.686l3.583,6.047H41.807l-2.306-4.2-2.309,4.2H34.317L37.9,11.686,34.407,5.735h2.843Z" transform="translate(4.459 10.392)" fill="#fff"/>
    </g>
  </g>
</svg>
