<svg id="Group_2" data-name="Group 2" xmlns="http://www.w3.org/2000/svg" xmlns:xlink="http://www.w3.org/1999/xlink" width="46.154" height="45" viewBox="0 0 46.154 45">
  <defs>
    <clipPath id="clip-path">
      <rect id="Rectangle_46" data-name="Rectangle 46" width="46.154" height="45" fill="none"/>
    </clipPath>
  </defs>
  <g id="Group_1" data-name="Group 1" clip-path="url(#clip-path)">
    <path id="Path_409" data-name="Path 409" d="M37.981,45H8.173A8.166,8.166,0,0,1,0,36.827V8.173A8.166,8.166,0,0,1,8.173,0H37.981a8.166,8.166,0,0,1,8.173,8.173V36.827A8.166,8.166,0,0,1,37.981,45" fill="#ff26be"/>
    <path id="Path_410" data-name="Path 410" d="M139.526,145.353H111.18a6.993,6.993,0,0,1-6.98-6.98V111.18a6.993,6.993,0,0,1,6.98-6.98h28.327a6.98,6.98,0,0,1,6.98,6.98v27.174a6.969,6.969,0,0,1-6.962,7" transform="translate(-102.276 -102.276)" fill="#2e001f"/>
    <path id="Path_411" data-name="Path 411" d="M476.323,602.913l5.385,10.346c.1.153.039.308-.116.308h-3.347a.377.377,0,0,1-.4-.249c-1.231-2.538-2.481-5.077-3.77-7.807h-.039c-1.154,2.577-2.424,5.289-3.654,7.828a.371.371,0,0,1-.347.212h-3.17c-.192,0-.212-.153-.114-.27l5.269-10.039-5.1-10.154a.155.155,0,0,1,.115-.27h3.308c.192,0,.27.039.345.212,1.211,2.538,2.443,5.154,3.6,7.711h.039c1.115-2.539,2.346-5.173,3.539-7.693.1-.153.153-.249.347-.249h3.1c.153,0,.212.116.116.27Zm6.329,3.135c0-4.481,2.982-7.981,7.711-7.981a8.468,8.468,0,0,1,1,.039v-5.1a.192.192,0,0,1,.192-.192h3.039c.153,0,.192.057.192.153v17.655a13.733,13.733,0,0,0,.1,1.885c0,.116-.039.153-.153.212a11.448,11.448,0,0,1-4.924,1.115c-4.174.017-7.156-2.559-7.154-7.791m8.71-4.922a2.89,2.89,0,0,0-1.115-.192c-2.424,0-4.115,1.865-4.115,4.963,0,3.539,1.732,4.963,3.9,4.963a3.6,3.6,0,0,0,1.327-.212v-9.521Z" transform="translate(-458.074 -581.856)" fill="#ffd9f2"/>
  </g>
</svg>
