<svg xmlns="http://www.w3.org/2000/svg" xmlns:xlink="http://www.w3.org/1999/xlink" width="118.646" height="40" viewBox="0 0 118.646 40">
  <defs>
    <clipPath id="clip-path">
      <rect id="Rectangle_49" data-name="Rectangle 49" width="118.646" height="40" fill="none"/>
    </clipPath>
  </defs>
  <g id="Group_8" data-name="Group 8" transform="translate(0 0)">
    <g id="Group_7" data-name="Group 7" transform="translate(0 0)" clip-path="url(#clip-path)">
      <path id="Path_429" data-name="Path 429" d="M20,13.805a4.015,4.015,0,1,1-4.015,4.015A4.015,4.015,0,0,1,20,13.805" transform="translate(2.481 2.142)" fill="#00d8ff" fill-rule="evenodd"/>
      <path id="Path_430" data-name="Path 430" d="M22.352,10.214a45.06,45.06,0,0,1,14.174,2.074c4.549,1.566,7.346,3.94,7.346,6.09,0,2.24-2.964,4.762-7.85,6.38A45.238,45.238,0,0,1,22.352,26.62,45.087,45.087,0,0,1,8.4,24.744C3.677,23.129.831,20.575.831,18.378c0-2.133,2.671-4.488,7.156-6.052a45.425,45.425,0,0,1,14.364-2.112Z" transform="translate(0.129 1.585)" fill="none" stroke="#00d8ff" stroke-miterlimit="10" stroke-width="1.663"/>
      <path id="Path_431" data-name="Path 431" d="M14.079,15.776A45.031,45.031,0,0,1,22.957,4.533C26.586,1.374,30.04.138,31.9,1.211c1.941,1.119,2.644,4.948,1.606,9.988a45.166,45.166,0,0,1-5.216,12.773A45.082,45.082,0,0,1,19.7,35.118C15.938,38.4,12.3,39.595,10.4,38.5c-1.847-1.064-2.554-4.555-1.668-9.222a45.471,45.471,0,0,1,5.346-13.5Z" transform="translate(1.296 0.129)" fill="none" stroke="#00d8ff" stroke-miterlimit="10" stroke-width="1.663"/>
      <path id="Path_432" data-name="Path 432" d="M14.085,23.978A45.052,45.052,0,0,1,8.778,10.672c-.924-4.722-.27-8.332,1.59-9.409,1.938-1.123,5.607.179,9.455,3.6a45.24,45.24,0,0,1,8.461,10.9,45.094,45.094,0,0,1,5.366,13.012c.969,4.9.185,8.642-1.718,9.743-1.845,1.069-5.222-.062-8.822-3.161A45.433,45.433,0,0,1,14.085,23.978Z" transform="translate(1.298 0.135)" fill="none" stroke="#00d8ff" stroke-miterlimit="10" stroke-width="1.663"/>
      <path id="Path_433" data-name="Path 433" d="M59.818,28.611,54.9,21.176a5.041,5.041,0,0,0,4.728-5.314c0-3.35-2.377-5.494-5.712-5.494H46.589V28.6h2.269V21.354h3.635L57.139,28.6Zm-6.177-9.238H48.859V12.4h4.783a3.388,3.388,0,0,1,3.635,3.471,3.411,3.411,0,0,1-3.635,3.5Zm14.623,9.565a7.174,7.174,0,0,0,5.248-2.022l-.984-1.34a5.77,5.77,0,0,1-4.072,1.667A4.652,4.652,0,0,1,63.7,22.68H74.385v-.52c0-3.962-2.351-7.079-6.342-7.079A6.6,6.6,0,0,0,61.54,22a6.537,6.537,0,0,0,6.723,6.931Zm4.1-7.763H63.7a4.4,4.4,0,0,1,4.318-4.4,4.28,4.28,0,0,1,4.346,4.4M88,28.61V19.536c0-3.2-2.322-4.456-5.111-4.456a6.906,6.906,0,0,0-5.275,2.187l.957,1.421a5.245,5.245,0,0,1,4.046-1.831c1.913,0,3.335,1.011,3.335,2.788v2.377a5.519,5.519,0,0,0-4.374-1.8,4.325,4.325,0,0,0-4.621,4.346,4.4,4.4,0,0,0,4.621,4.374,5.71,5.71,0,0,0,4.374-1.831v1.5Zm-5.684-1.148a2.9,2.9,0,1,1,0-5.767,4.421,4.421,0,0,1,3.635,1.64v2.487a4.423,4.423,0,0,1-3.635,1.64Zm15.6,1.476a5.654,5.654,0,0,0,4.838-2.3l-1.367-1.257a3.975,3.975,0,0,1-3.35,1.721c-2.815,0-4.563-2.187-4.563-5.111s1.749-5.083,4.563-5.083a3.883,3.883,0,0,1,3.35,1.721l1.367-1.257a5.649,5.649,0,0,0-4.838-2.3c-3.936,0-6.587,3.007-6.587,6.915,0,3.936,2.651,6.931,6.587,6.931Zm11.044,0a3.36,3.36,0,0,0,2.461-.847l-.6-1.531a1.959,1.959,0,0,1-1.394.546c-.9,0-1.34-.71-1.34-1.695v-8.2h2.68v-1.8h-2.68V11.8h-2.05v3.608h-2.187v1.8h2.187v8.637c0,1.968.984,3.089,2.925,3.089Z" transform="translate(7.231 1.609)" fill="#00d8ff" fill-rule="evenodd"/>
    </g>
  </g>
</svg>
