<svg xmlns="http://www.w3.org/2000/svg" width="118.753" height="40" viewBox="0 0 118.753 40">
  <g id="Group_6" data-name="Group 6" transform="translate(13)">
    <path id="Path_423" data-name="Path 423" d="M236.5,38V58.148l2.593.02v-9.6h6.254V46.036h-6.254v-5.5h8.135V38Zm15.4,4.1a1.7,1.7,0,1,0-1.7-1.7,1.7,1.7,0,0,0,1.7,1.7m-1.326,16.071h2.593V44.63h-2.593Zm12.212-13.934c-3.444,0-5.839,2.909-5.839,6.373s2.395,6.373,5.839,6.373a5.08,5.08,0,0,0,3.82-1.6v1.8a4.067,4.067,0,0,1-4.018,4.117h-.04a4.1,4.1,0,0,1-2.3-.772l-1.306,2.256a6.627,6.627,0,0,0,9.184-1.979,6.733,6.733,0,0,0,1.069-3.622V44.65H266.6v1.207a5.1,5.1,0,0,0-3.82-1.623m-3.246,6.373a3.544,3.544,0,1,1,3.543,3.82,3.714,3.714,0,0,1-3.543-3.82m19-3.84a2.8,2.8,0,0,0-2.771,2.83v8.55h-2.593V44.611h2.593v1.247a4.08,4.08,0,0,1,3.345-1.623,4.467,4.467,0,0,1,4.018,2.276,4.975,4.975,0,0,1,4.117-2.276c2.949,0,4.79,2.375,4.79,5.324v8.59h-2.573V49.6a2.772,2.772,0,1,0-5.542,0v8.55h-2.613V49.6a2.817,2.817,0,0,0-2.771-2.83m27.313-.614a6.22,6.22,0,0,0-4.572-1.92c-3.859,0-6.591,3.266-6.591,7.145,0,3.9,2.731,7.145,6.591,7.145a6.409,6.409,0,0,0,4.572-1.92v1.544h2.593V44.611h-2.593Zm-8.57,5.225a4.3,4.3,0,1,1,4.275,4.612,4.5,4.5,0,0,1-4.275-4.612" transform="translate(-202.691 -30.479)"/>
    <path id="Path_424" data-name="Path 424" d="M67.3,74.07a6.67,6.67,0,1,1,6.67,6.67,6.673,6.673,0,0,1-6.67-6.67" transform="translate(-56.58 -54.06)" fill="#1abcfe"/>
    <path id="Path_425" data-name="Path 425" d="M0,141.37a6.673,6.673,0,0,1,6.67-6.67h6.67v6.67a6.67,6.67,0,0,1-13.34,0" transform="translate(-2.6 -108.04)" fill="#0acf83"/>
    <path id="Path_426" data-name="Path 426" d="M67.3.02V13.34h6.67A6.67,6.67,0,1,0,73.97,0H67.3Z" transform="translate(-56.58)" fill="#ff7262"/>
    <path id="Path_427" data-name="Path 427" d="M0,6.85a6.673,6.673,0,0,0,6.67,6.67h6.67V.2H6.67A6.644,6.644,0,0,0,0,6.85" transform="translate(-2.6 -0.16)" fill="#f24e1e"/>
    <path id="Path_428" data-name="Path 428" d="M0,74.15a6.673,6.673,0,0,0,6.67,6.67h6.67V67.5H6.67A6.644,6.644,0,0,0,0,74.15" transform="translate(-2.6 -54.14)" fill="#a259ff"/>
    <rect id="Rectangle_48" data-name="Rectangle 48" width="118.753" height="40" transform="translate(-13)" fill="none"/>
  </g>
</svg>
