<?xml version="1.0" encoding="utf-8"?>
<!-- Generator: Adobe Illustrator 19.2.1, SVG Export Plug-In . SVG Version: 6.00 Build 0)  -->
<svg version="1.1" id="layer" xmlns="http://www.w3.org/2000/svg" xmlns:xlink="http://www.w3.org/1999/xlink" x="0px" y="0px"
	 viewBox="0 0 652 652" style="enable-background:new 0 0 652 652;" xml:space="preserve">
<style type="text/css">
	.st0{fill:#5CE500;}
	.st1{fill:#4B4E52;}
</style>
<path class="st0" d="M131.9,286.1L131.9,286.1v59.8c-0.1,1.5-0.9,2.8-2.1,3.6l-2,1.2l-14.9,8.6l-10.1,5.9l-2.1,1.2v-64.6l-56-32.3
	l26.6-15.3l2.4-1.4c1.3-0.7,2.9-0.7,4.2,0l36.8,21.3l17,9.8L131.9,286.1L131.9,286.1z M88.4,308.8l-11.5-6.6l-26.8-15.5
	c-1.3-0.7-2.9-0.7-4.2,0l-23.8,13.8l-2.1,1.2l40.4,23.3v46.7l23.8-13.7l2.1-1.2c1.2-0.8,2-2.1,2.1-3.6V308.8z M20,348.3l28,16.1
	v-32.3L20,348.3z"/>
<path class="st1" d="M193.5,283.7h-30.5v82.6h13.5v-32.4h17.1c18.5,0,28.7-9,28.7-25.4C222.3,301,219.5,283.7,193.5,283.7
	 M208.5,308.6c0,9.3-4.8,13.1-16.7,13.1h-15.2v-25.9h17.1C203.7,295.9,208.6,300,208.5,308.6 M262.6,306.1l1,0.5l-2.3,12.2l-1.6-0.5
	c-1.3-0.4-2.6-0.6-3.9-0.6c-12.6,0-13.7,10.1-13.7,22.3v26.3h-12.5v-60.7h11.7v7.3c3.2-4.9,7-7.5,12.2-8.1
	C256.6,304.4,259.7,304.8,262.6,306.1 M293.4,304.4c-9.9,0-17.8,3.7-22.9,10.9c-5.3,7.5-6.1,16.2-6.1,20.8c0,19.2,11.4,31.5,29,31.5
	c21.4,0,29-17.2,29-32c0-8.5-2.5-16.2-7-21.7C310.2,307.7,302.6,304.4,293.4,304.4 M293.4,356.4c-9.8,0-15.9-7.8-15.9-20.4
	s6.1-20.6,15.9-20.6c9.8,0,16,7.9,16,20.3C309.5,348.5,303.3,356.4,293.4,356.4 M427.7,306.1l1,0.5l-2.3,12.2l-1.6-0.5
	c-1.3-0.4-2.6-0.6-3.9-0.6c-12.6,0-13.7,10.1-13.7,22.3v26.3h-12.5v-60.7h11.7v7.3c3.2-4.9,7-7.5,12.2-8.1
	C421.7,304.4,424.8,304.8,427.7,306.1 M472.6,346.8l-0.2,0.7c-2.6,7.5-8.9,9-13.7,9c-9.5,0-15.6-6.3-16.2-16.5h42.9l0.2-1.2
	c0.2-1.6,0.2-3.2,0.1-4.8c0-0.4,0-0.8,0-1.1c-0.6-17-11.7-28.5-27.5-28.5c-9.3,0-16.8,3.6-21.9,10.5c-4.3,6.2-6.6,13.6-6.5,21.1
	c0,18.7,11.7,31.3,29,31.3c13.4,0,22.7-6.8,26-19.2l0.4-1.4H472.6L472.6,346.8z M443,329.1c1.1-8.4,6.8-13.7,15-13.7
	c6.2,0,13.6,3.6,14.7,13.7H443z M371.9,310.7c-4-4.2-9.4-6.3-16.1-6.3c-18.4,0-26.8,16.2-26.8,31.2c0,15.4,8.3,31,26.8,31
	c5.9,0.1,11.5-2.2,15.6-6.4c0,2.7-0.1,5.2-0.2,6.3c-0.7,10-5.5,14.7-15.1,14.7c-5.2,0-11.3-1.9-12.4-7l-0.3-1.2h-12.4l0.2,1.7
	c1.3,10.7,10.7,17.3,24.5,17.3c12.1,0,20.7-4.6,24.9-13.2c2-4.2,3-10.2,3-18v-55.1h-11.9L371.9,310.7L371.9,310.7z M356.6,355.4
	c-4.4,0-14.6-2-14.6-20.4c0-12.1,5.7-19.6,14.9-19.6c7.1,0,14.7,5.1,14.7,19.6C371.5,347.8,365.9,355.4,356.6,355.4 M543.7,348
	c0,9.6-8,19.4-25.9,19.4c-15.8,0-25.2-6.9-26.5-19.3l-0.2-1.3h12.3l0.2,1c1.5,7.5,8.6,9,14.3,9c6.3,0,12.9-2,12.9-7.7
	c0-2.9-1.9-4.9-5.5-6c-2.2-0.6-4.9-1.4-7.7-2.2c-4.9-1.4-9.9-2.8-13-3.9c-7.7-2.8-12.1-8.1-12.1-14.7c0-12.2,11.9-17.7,23.7-17.7
	c15.8,0,23.9,5.9,25,18.2l0.1,1.3h-12.1l-0.2-1c-1.2-7-8.2-8.1-12.3-8.1c-3.5,0-11.7,0.6-11.7,6.4c0,2.6,2.3,4.6,6.9,5.9
	c1.4,0.4,3.4,0.9,5.9,1.5c4.9,1.3,11.1,2.9,14.2,3.9c7.7,2.7,11.6,7.8,11.6,15.2 M601.5,348.1c0,9.6-8,19.4-25.9,19.4
	c-15.8,0-25.2-6.9-26.5-19.3l-0.1-1.3h12.4l0.1,0.9c1.5,7.5,8.6,9,14.3,9c6.3,0,12.9-2,12.9-7.7c0-2.9-1.9-4.9-5.5-6
	c-2.2-0.6-4.9-1.4-7.7-2.2c-4.9-1.4-9.9-2.8-13-3.9c-7.7-2.8-12.1-8.1-12.1-14.7c0-12.2,11.9-17.7,23.7-17.7
	c15.8,0,23.9,5.9,24.9,18.2l0.1,1.3h-12.1l-0.2-1c-1.2-7-8.2-8.1-12.3-8.1c-3.5,0-11.7,0.6-11.7,6.4c0,2.6,2.3,4.6,6.9,5.9
	c1.4,0.4,3.4,0.9,5.9,1.5c4.9,1.3,11.1,2.9,14.2,3.9C597.7,335.6,601.6,340.7,601.5,348.1"/>
<path class="st1" d="M611.5,312c-4.8,0.1-8.7-3.8-8.7-8.5c-0.1-4.8,3.8-8.7,8.5-8.7s8.7,3.8,8.7,8.5c0,0,0,0.1,0,0.1
	c0.1,4.7-3.6,8.5-8.3,8.6C611.6,312,611.5,312,611.5,312 M611.5,296.2c-4-0.1-7.2,3.1-7.3,7c-0.1,4,3.1,7.2,7,7.3s7.2-3.1,7.3-7
	c0,0,0-0.1,0-0.1c0.1-3.8-2.9-7-6.7-7.2C611.7,296.2,611.6,296.2,611.5,296.2 M610.5,305v2.9h-2.5v-9.1h4.2c1.7-0.2,3.2,1,3.3,2.7
	c0,0.2,0,0.3,0,0.5c0.1,1.2-0.6,2.3-1.7,2.7l2.1,3.2H613l-1.7-2.9H610.5L610.5,305z M611.9,300.9h-1.4v2h1.4
	c0.5,0.1,1.1-0.3,1.2-0.8c0-0.1,0-0.1,0-0.2c0-0.6-0.4-1-1-1.1C612,300.9,611.9,300.9,611.9,300.9"/>
</svg>
