<svg id="Group_4" data-name="Group 4" xmlns="http://www.w3.org/2000/svg" xmlns:xlink="http://www.w3.org/1999/xlink" width="71.434" height="50" viewBox="0 0 71.434 50">
  <defs>
    <clipPath id="clip-path">
      <rect id="Rectangle_47" data-name="Rectangle 47" width="71.434" height="50" fill="none"/>
    </clipPath>
  </defs>
  <g id="Group_3" data-name="Group 3" clip-path="url(#clip-path)">
    <path id="Path_412" data-name="Path 412" d="M29.727,5.453a12.517,12.517,0,0,1,9.059-3.889A12.647,12.647,0,0,1,49.806,8.1a15.226,15.226,0,0,1,6.229-1.324,15.536,15.536,0,0,1,0,31.07,15.278,15.278,0,0,1-3.033-.3A11.258,11.258,0,0,1,38.25,42.174a12.844,12.844,0,0,1-23.877-.581,11.782,11.782,0,0,1-2.45.255A12.072,12.072,0,0,1,5.962,19.366,13.873,13.873,0,0,1,29.727,5.453" fill="#00a1e0"/>
    <path id="Path_413" data-name="Path 413" d="M37,77.784c-.045.117.016.141.03.162a4.189,4.189,0,0,0,.408.246,4.351,4.351,0,0,0,2.136.5c1.465,0,2.375-.78,2.375-2.034v-.024c0-1.16-1.027-1.582-1.99-1.886l-.125-.041c-.727-.236-1.353-.439-1.353-.918v-.025c0-.409.366-.71.934-.71a4.227,4.227,0,0,1,1.862.476s.141.092.193-.046c.028-.073.273-.73.3-.8a.137.137,0,0,0-.071-.165,4.155,4.155,0,0,0-2.1-.564h-.147a2.047,2.047,0,0,0-2.277,1.971v.025c0,1.224,1.033,1.621,2,1.9l.156.048c.705.217,1.313.4,1.313.9v.024c0,.454-.395.792-1.032.792a3.466,3.466,0,0,1-1.888-.544c-.1-.06-.163-.1-.242-.152a.116.116,0,0,0-.192.066Z" transform="translate(-26.654 -51.855)" fill="#fff"/>
    <path id="Path_414" data-name="Path 414" d="M113.8,77.784c-.045.117.016.141.03.162a4.189,4.189,0,0,0,.408.246,4.351,4.351,0,0,0,2.136.5c1.465,0,2.375-.78,2.375-2.034v-.024c0-1.16-1.027-1.582-1.99-1.886l-.125-.041c-.727-.236-1.353-.439-1.353-.918v-.025c0-.409.366-.71.934-.71a4.227,4.227,0,0,1,1.862.476s.141.092.193-.046c.028-.073.273-.73.3-.8a.137.137,0,0,0-.071-.165,4.155,4.155,0,0,0-2.1-.564h-.147a2.047,2.047,0,0,0-2.277,1.971v.025c0,1.224,1.033,1.621,2,1.9l.156.048c.705.217,1.314.4,1.314.9v.024c0,.454-.4.792-1.033.792a3.466,3.466,0,0,1-1.888-.544c-.1-.06-.164-.1-.241-.152a.125.125,0,0,0-.193.066Z" transform="translate(-82.002 -51.855)" fill="#fff"/>
    <path id="Path_415" data-name="Path 415" d="M154.477,75.375a3.016,3.016,0,0,1-.393,1.663,1.315,1.315,0,0,1-1.191.581,1.3,1.3,0,0,1-1.185-.581,3.756,3.756,0,0,1,0-3.319,1.3,1.3,0,0,1,1.185-.575,1.322,1.322,0,0,1,1.192.575,2.993,2.993,0,0,1,.392,1.657M155.7,74.06A2.94,2.94,0,0,0,155.144,73a2.692,2.692,0,0,0-.939-.715,3.406,3.406,0,0,0-2.623,0,2.707,2.707,0,0,0-.94.715,2.989,2.989,0,0,0-.556,1.062,4.909,4.909,0,0,0,0,2.63,2.96,2.96,0,0,0,.558,1.062,2.626,2.626,0,0,0,.939.708,3.481,3.481,0,0,0,2.623,0,2.626,2.626,0,0,0,.939-.708,2.942,2.942,0,0,0,.557-1.062,4.887,4.887,0,0,0,0-2.63" transform="translate(-108.034 -51.904)" fill="#fff"/>
    <path id="Path_416" data-name="Path 416" d="M194.455,77.414a.116.116,0,0,0-.156-.074,2.816,2.816,0,0,1-.569.163,4.419,4.419,0,0,1-.671.048,1.863,1.863,0,0,1-1.4-.524,2.337,2.337,0,0,1-.525-1.672,2.593,2.593,0,0,1,.469-1.611,1.6,1.6,0,0,1,1.357-.6,4.066,4.066,0,0,1,1.292.185s.1.042.142-.084c.107-.3.186-.51.3-.837a.11.11,0,0,0-.075-.144,4.776,4.776,0,0,0-.816-.206,6.151,6.151,0,0,0-.918-.062,3.325,3.325,0,0,0-1.364.263,2.825,2.825,0,0,0-.985.713,3.037,3.037,0,0,0-.6,1.062,4.237,4.237,0,0,0-.2,1.317,3.52,3.52,0,0,0,.814,2.435,3.1,3.1,0,0,0,2.415.909,4.977,4.977,0,0,0,1.732-.309.111.111,0,0,0,.05-.146Z" transform="translate(-136.745 -51.888)" fill="#fff"/>
    <path id="Path_417" data-name="Path 417" d="M210.538,74.7a2.406,2.406,0,0,1,.335-.977,1.318,1.318,0,0,1,1.183-.6,1.285,1.285,0,0,1,1.16.6,2.047,2.047,0,0,1,.275.977Zm4.118-.866a2.57,2.57,0,0,0-.53-.969,2.433,2.433,0,0,0-.785-.6,3.031,3.031,0,0,0-1.187-.24,3.232,3.232,0,0,0-1.367.266,2.721,2.721,0,0,0-.954.728,2.988,2.988,0,0,0-.561,1.075,4.653,4.653,0,0,0-.182,1.322,4.43,4.43,0,0,0,.188,1.322,2.658,2.658,0,0,0,1.641,1.742,4.172,4.172,0,0,0,1.5.243,4.328,4.328,0,0,0,2.085-.414c.046-.025.089-.07.035-.2l-.271-.758a.119.119,0,0,0-.156-.071,4,4,0,0,1-1.7.305,1.694,1.694,0,0,1-1.9-1.864l4.141,0a.122.122,0,0,0,.12-.108,4.443,4.443,0,0,0-.123-1.784" transform="translate(-150.688 -51.905)" fill="#fff"/>
    <path id="Path_418" data-name="Path 418" d="M91.822,74.7a2.418,2.418,0,0,1,.335-.977,1.318,1.318,0,0,1,1.183-.6,1.288,1.288,0,0,1,1.161.6,2.053,2.053,0,0,1,.274.977Zm4.117-.866a2.573,2.573,0,0,0-.529-.969,2.434,2.434,0,0,0-.786-.6,3.029,3.029,0,0,0-1.187-.24,3.233,3.233,0,0,0-1.366.266,2.718,2.718,0,0,0-.954.728,2.984,2.984,0,0,0-.561,1.075,4.683,4.683,0,0,0-.182,1.322,4.43,4.43,0,0,0,.188,1.322A2.658,2.658,0,0,0,92.2,78.476a4.172,4.172,0,0,0,1.5.243,4.327,4.327,0,0,0,2.085-.414c.046-.025.09-.07.035-.2l-.27-.758a.12.12,0,0,0-.157-.071,3.994,3.994,0,0,1-1.7.305,1.694,1.694,0,0,1-1.9-1.864l4.141,0a.122.122,0,0,0,.12-.108,4.429,4.429,0,0,0-.124-1.784" transform="translate(-65.131 -51.905)" fill="#fff"/>
    <path id="Path_419" data-name="Path 419" d="M59.116,77.39a.841.841,0,0,1-.239-.245,1,1,0,0,1-.123-.539.906.906,0,0,1,.369-.8,1.854,1.854,0,0,1,1.2-.3,8.5,8.5,0,0,1,1.123.1v1.883h0a8.439,8.439,0,0,1-1.118.149,1.863,1.863,0,0,1-1.214-.242m1.647-2.909c-.168-.012-.386-.019-.646-.019a3.925,3.925,0,0,0-1.02.131,2.656,2.656,0,0,0-.865.4,1.931,1.931,0,0,0-.821,1.637,2.166,2.166,0,0,0,.189.945,1.7,1.7,0,0,0,.54.647,2.264,2.264,0,0,0,.844.365,4.944,4.944,0,0,0,1.1.112,7.484,7.484,0,0,0,1.258-.1c.406-.069.9-.17,1.043-.2s.29-.074.29-.074a.13.13,0,0,0,.095-.135l0-3.786a2.317,2.317,0,0,0-.658-1.828A2.815,2.815,0,0,0,60.2,72a6.811,6.811,0,0,0-1.109.1,4,4,0,0,0-1.277.466.13.13,0,0,0-.037.165l.293.787a.1.1,0,0,0,.135.067.549.549,0,0,0,.068-.034,4.2,4.2,0,0,1,1.8-.42,1.668,1.668,0,0,1,1.024.268c.226.173.341.435.341.986v.175c-.356-.051-.683-.08-.683-.08" transform="translate(-41.376 -51.888)" fill="#fff"/>
    <path id="Path_420" data-name="Path 420" d="M179.107,72.542a.112.112,0,0,0-.062-.149,3.606,3.606,0,0,0-.694-.119,2.06,2.06,0,0,0-1.067.172,1.879,1.879,0,0,0-.7.516v-.5a.12.12,0,0,0-.119-.126H175.4a.12.12,0,0,0-.119.126v6.176a.127.127,0,0,0,.126.126H176.5a.126.126,0,0,0,.125-.126V75.549a3.615,3.615,0,0,1,.137-1.087,1.567,1.567,0,0,1,.362-.609,1.274,1.274,0,0,1,.512-.307,2,2,0,0,1,.556-.078,2.325,2.325,0,0,1,.455.056c.079.009.124-.04.151-.112.071-.189.273-.756.311-.869" transform="translate(-126.324 -52.082)" fill="#fff"/>
    <path id="Path_421" data-name="Path 421" d="M133.982,62.639a3.557,3.557,0,0,0-.409-.1,3.238,3.238,0,0,0-.563-.043,2.371,2.371,0,0,0-1.753.629,3.42,3.42,0,0,0-.832,1.878l-.051.28h-.94a.139.139,0,0,0-.138.12l-.154.862c-.011.082.024.133.134.133h.915l-.928,5.182a6.412,6.412,0,0,1-.248,1.021,2.091,2.091,0,0,1-.289.589.771.771,0,0,1-.378.292,1.543,1.543,0,0,1-.487.07,1.826,1.826,0,0,1-.332-.037.977.977,0,0,1-.224-.072.114.114,0,0,0-.149.066c-.034.089-.278.759-.307.842a.125.125,0,0,0,.064.166,3.392,3.392,0,0,0,.378.111,2.515,2.515,0,0,0,.607.057,3.031,3.031,0,0,0,1.016-.158,1.918,1.918,0,0,0,.765-.533,2.729,2.729,0,0,0,.537-.927,7.865,7.865,0,0,0,.365-1.39l.933-5.278h1.364a.139.139,0,0,0,.138-.121l.155-.861c.01-.082-.024-.133-.135-.133H131.71a5.751,5.751,0,0,1,.219-.934,1.224,1.224,0,0,1,.29-.442.868.868,0,0,1,.347-.216,1.44,1.44,0,0,1,.445-.063,1.745,1.745,0,0,1,.34.034c.128.028.178.042.211.052.135.041.154,0,.18-.064l.316-.869a.111.111,0,0,0-.076-.144" transform="translate(-91.409 -45.042)" fill="#fff"/>
    <path id="Path_422" data-name="Path 422" d="M82.749,71.938a.12.12,0,0,1-.119.125h-1.1a.119.119,0,0,1-.118-.125V63.1a.119.119,0,0,1,.118-.125h1.1a.12.12,0,0,1,.119.125Z" transform="translate(-58.673 -45.386)" fill="#fff"/>
  </g>
</svg>
