<svg id="Group_4" data-name="Group 4" xmlns="http://www.w3.org/2000/svg" xmlns:xlink="http://www.w3.org/1999/xlink" width="64.291" height="45" viewBox="0 0 64.291 45">
  <defs>
    <clipPath id="clip-path">
      <rect id="Rectangle_47" data-name="Rectangle 47" width="64.291" height="45" fill="none"/>
    </clipPath>
  </defs>
  <g id="Group_3" data-name="Group 3" clip-path="url(#clip-path)">
    <path id="Path_412" data-name="Path 412" d="M26.754,4.908a11.266,11.266,0,0,1,8.153-3.5,11.382,11.382,0,0,1,9.918,5.88A13.7,13.7,0,0,1,50.431,6.1a13.982,13.982,0,0,1,0,27.963,13.75,13.75,0,0,1-2.73-.272,10.132,10.132,0,0,1-13.276,4.17,11.56,11.56,0,0,1-21.489-.523,10.6,10.6,0,0,1-2.205.23A10.865,10.865,0,0,1,5.366,17.429,12.485,12.485,0,0,1,26.754,4.908" fill="#00a1e0"/>
    <path id="Path_413" data-name="Path 413" d="M37,77.2c-.04.105.015.127.027.146a3.769,3.769,0,0,0,.367.222,3.916,3.916,0,0,0,1.922.45c1.319,0,2.138-.7,2.138-1.831v-.022c0-1.044-.924-1.423-1.791-1.7l-.113-.037c-.654-.212-1.218-.4-1.218-.826v-.023c0-.368.33-.639.841-.639a3.8,3.8,0,0,1,1.676.429s.127.082.174-.041c.026-.066.245-.657.268-.721a.123.123,0,0,0-.064-.149,3.74,3.74,0,0,0-1.889-.507H39.2a1.842,1.842,0,0,0-2.05,1.774v.022c0,1.1.93,1.459,1.8,1.708l.14.043c.635.2,1.181.363,1.181.81v.022c0,.409-.355.713-.929.713a3.12,3.12,0,0,1-1.7-.489c-.093-.054-.147-.093-.218-.137a.1.1,0,0,0-.173.06Z" transform="translate(-27.687 -53.865)" fill="#fff"/>
    <path id="Path_414" data-name="Path 414" d="M113.8,77.2c-.04.105.015.127.027.146a3.769,3.769,0,0,0,.367.222,3.916,3.916,0,0,0,1.922.45c1.319,0,2.138-.7,2.138-1.831v-.022c0-1.044-.924-1.423-1.791-1.7l-.113-.037c-.654-.212-1.218-.4-1.218-.826v-.023c0-.368.33-.639.841-.639a3.8,3.8,0,0,1,1.676.429s.127.082.174-.041c.026-.066.245-.657.268-.721a.123.123,0,0,0-.064-.149,3.74,3.74,0,0,0-1.889-.507H116a1.842,1.842,0,0,0-2.05,1.774v.022c0,1.1.93,1.459,1.8,1.708l.14.043c.635.2,1.182.363,1.182.81v.022c0,.409-.356.713-.93.713a3.12,3.12,0,0,1-1.7-.489c-.093-.054-.147-.092-.217-.137a.113.113,0,0,0-.174.06Z" transform="translate(-85.18 -53.865)" fill="#fff"/>
    <path id="Path_415" data-name="Path 415" d="M154.02,75.04a2.715,2.715,0,0,1-.353,1.5,1.183,1.183,0,0,1-1.072.523,1.168,1.168,0,0,1-1.067-.523,3.381,3.381,0,0,1,0-2.987,1.174,1.174,0,0,1,1.067-.517,1.189,1.189,0,0,1,1.072.517,2.694,2.694,0,0,1,.353,1.491m1.1-1.183a2.646,2.646,0,0,0-.5-.956,2.423,2.423,0,0,0-.845-.643,3.065,3.065,0,0,0-2.36,0,2.436,2.436,0,0,0-.846.643,2.69,2.69,0,0,0-.5.956,4.418,4.418,0,0,0,0,2.367,2.664,2.664,0,0,0,.5.956,2.363,2.363,0,0,0,.845.638,3.133,3.133,0,0,0,2.36,0,2.363,2.363,0,0,0,.845-.638,2.648,2.648,0,0,0,.5-.956,4.4,4.4,0,0,0,0-2.367" transform="translate(-112.221 -53.916)" fill="#fff"/>
    <path id="Path_416" data-name="Path 416" d="M193.984,76.872a.1.1,0,0,0-.14-.067,2.535,2.535,0,0,1-.512.147,3.976,3.976,0,0,1-.6.043,1.677,1.677,0,0,1-1.259-.472,2.1,2.1,0,0,1-.473-1.5,2.334,2.334,0,0,1,.422-1.45,1.437,1.437,0,0,1,1.222-.537,3.66,3.66,0,0,1,1.163.167s.087.037.128-.076c.1-.267.168-.459.27-.753a.1.1,0,0,0-.068-.129,4.3,4.3,0,0,0-.734-.185,5.536,5.536,0,0,0-.826-.056,2.992,2.992,0,0,0-1.227.236,2.543,2.543,0,0,0-.887.642,2.734,2.734,0,0,0-.536.956,3.813,3.813,0,0,0-.179,1.185,3.168,3.168,0,0,0,.733,2.192,2.785,2.785,0,0,0,2.173.818,4.479,4.479,0,0,0,1.559-.279.1.1,0,0,0,.045-.131Z" transform="translate(-142.045 -53.899)" fill="#fff"/>
    <path id="Path_417" data-name="Path 417" d="M210.393,74.429a2.165,2.165,0,0,1,.3-.879,1.186,1.186,0,0,1,1.065-.54,1.157,1.157,0,0,1,1.044.54,1.842,1.842,0,0,1,.247.879Zm3.706-.779a2.312,2.312,0,0,0-.477-.872,2.19,2.19,0,0,0-.707-.539,2.728,2.728,0,0,0-1.068-.216,2.908,2.908,0,0,0-1.23.239,2.448,2.448,0,0,0-.858.655,2.69,2.69,0,0,0-.5.967,4.188,4.188,0,0,0-.164,1.19,3.987,3.987,0,0,0,.169,1.19,2.392,2.392,0,0,0,1.477,1.568,3.754,3.754,0,0,0,1.353.219,3.9,3.9,0,0,0,1.877-.373c.041-.023.08-.063.031-.179l-.244-.682a.107.107,0,0,0-.14-.064,3.6,3.6,0,0,1-1.529.275,1.525,1.525,0,0,1-1.709-1.678l3.727,0a.11.11,0,0,0,.108-.1,4,4,0,0,0-.111-1.605" transform="translate(-156.528 -53.917)" fill="#fff"/>
    <path id="Path_418" data-name="Path 418" d="M91.677,74.429a2.177,2.177,0,0,1,.3-.879,1.186,1.186,0,0,1,1.065-.54,1.159,1.159,0,0,1,1.045.54,1.848,1.848,0,0,1,.246.879Zm3.705-.779a2.316,2.316,0,0,0-.476-.872,2.191,2.191,0,0,0-.707-.539,2.726,2.726,0,0,0-1.068-.216,2.91,2.91,0,0,0-1.23.239,2.446,2.446,0,0,0-.858.655,2.686,2.686,0,0,0-.5.967,4.214,4.214,0,0,0-.164,1.19,3.987,3.987,0,0,0,.169,1.19,2.392,2.392,0,0,0,1.477,1.568,3.754,3.754,0,0,0,1.353.219,3.894,3.894,0,0,0,1.876-.373c.041-.023.081-.063.031-.179l-.243-.682a.108.108,0,0,0-.141-.064,3.6,3.6,0,0,1-1.53.275,1.524,1.524,0,0,1-1.708-1.678l3.727,0a.11.11,0,0,0,.108-.1,3.986,3.986,0,0,0-.112-1.605" transform="translate(-67.656 -53.917)" fill="#fff"/>
    <path id="Path_419" data-name="Path 419" d="M58.946,76.851a.757.757,0,0,1-.215-.221.9.9,0,0,1-.111-.485.815.815,0,0,1,.332-.721,1.669,1.669,0,0,1,1.081-.269,7.647,7.647,0,0,1,1.011.086v1.694h0a7.6,7.6,0,0,1-1.007.134,1.676,1.676,0,0,1-1.093-.218m1.483-2.618c-.151-.011-.347-.017-.581-.017a3.532,3.532,0,0,0-.918.118,2.39,2.39,0,0,0-.778.361,1.738,1.738,0,0,0-.739,1.474,1.949,1.949,0,0,0,.17.851,1.532,1.532,0,0,0,.486.582,2.037,2.037,0,0,0,.759.329,4.449,4.449,0,0,0,.986.1,6.735,6.735,0,0,0,1.132-.094c.366-.062.814-.153.939-.182s.261-.067.261-.067a.117.117,0,0,0,.085-.122l0-3.408a2.086,2.086,0,0,0-.593-1.645A2.534,2.534,0,0,0,59.925,72a6.13,6.13,0,0,0-1,.092,3.6,3.6,0,0,0-1.149.419.117.117,0,0,0-.033.149l.264.709a.094.094,0,0,0,.122.061.494.494,0,0,0,.061-.03,3.782,3.782,0,0,1,1.624-.378,1.5,1.5,0,0,1,.921.241c.2.156.307.391.307.887V74.3c-.321-.046-.615-.072-.615-.072" transform="translate(-42.979 -53.899)" fill="#fff"/>
    <path id="Path_420" data-name="Path 420" d="M178.725,72.514a.1.1,0,0,0-.056-.134,3.244,3.244,0,0,0-.625-.107,1.854,1.854,0,0,0-.961.155,1.691,1.691,0,0,0-.63.464v-.453a.108.108,0,0,0-.107-.113h-.955a.108.108,0,0,0-.107.113V78a.114.114,0,0,0,.114.114h.979a.113.113,0,0,0,.113-.114V75.221a3.254,3.254,0,0,1,.124-.978,1.41,1.41,0,0,1,.326-.549,1.146,1.146,0,0,1,.461-.277,1.8,1.8,0,0,1,.5-.07,2.093,2.093,0,0,1,.409.05c.071.008.112-.036.135-.1.064-.17.246-.681.28-.782" transform="translate(-131.22 -54.1)" fill="#fff"/>
    <path id="Path_421" data-name="Path 421" d="M133.267,62.625a3.2,3.2,0,0,0-.368-.088,2.914,2.914,0,0,0-.506-.038,2.134,2.134,0,0,0-1.578.566,3.078,3.078,0,0,0-.749,1.691l-.046.252h-.846a.125.125,0,0,0-.124.108l-.138.776c-.01.073.022.12.121.12h.823l-.835,4.664a5.77,5.77,0,0,1-.223.919,1.882,1.882,0,0,1-.26.53.694.694,0,0,1-.341.263,1.389,1.389,0,0,1-.439.063,1.644,1.644,0,0,1-.3-.033.88.88,0,0,1-.2-.065.1.1,0,0,0-.134.06c-.03.08-.25.683-.277.757a.112.112,0,0,0,.058.149,3.054,3.054,0,0,0,.341.1,2.264,2.264,0,0,0,.546.051,2.728,2.728,0,0,0,.915-.142,1.727,1.727,0,0,0,.689-.48,2.457,2.457,0,0,0,.483-.834,7.078,7.078,0,0,0,.328-1.251l.84-4.75h1.227a.125.125,0,0,0,.124-.109l.139-.775c.009-.074-.022-.12-.122-.12h-1.192a5.175,5.175,0,0,1,.2-.841,1.1,1.1,0,0,1,.261-.4.781.781,0,0,1,.312-.194,1.3,1.3,0,0,1,.4-.057,1.57,1.57,0,0,1,.306.03c.115.025.16.038.19.047.122.037.139,0,.162-.058l.285-.782a.1.1,0,0,0-.069-.13" transform="translate(-94.952 -46.787)" fill="#fff"/>
    <path id="Path_422" data-name="Path 422" d="M82.616,71.042a.108.108,0,0,1-.107.113H81.52a.107.107,0,0,1-.106-.113V63.089a.107.107,0,0,1,.106-.113h.988a.108.108,0,0,1,.107.113Z" transform="translate(-60.947 -47.145)" fill="#fff"/>
  </g>
</svg>
