<svg id="sketch" xmlns="http://www.w3.org/2000/svg" width="175.639" height="40" viewBox="0 0 175.639 40">
  <path id="Path_444" data-name="Path 444" d="M3.826,21.252,3.791,20.8H0l.021.508C.254,26.956,4.09,30.7,10.91,30.7c6.505,0,10.929-3.356,10.929-8.436a6.9,6.9,0,0,0-2.789-6.017,14.83,14.83,0,0,0-5.878-2.2l-.613-.13-.608-.127c-5.067-1.053-6.673-1.97-6.673-4.7,0-2.821,2.322-4.617,6.219-4.617,3.791,0,6.187,2.3,6.3,5.918l.015.472h3.764l-.011-.5C21.433,4.727,17.621.93,11.46.93,5.421.93,1.433,4.538,1.433,9.209a6.665,6.665,0,0,0,2.79,5.92c1.4.971,3.012,1.487,5.864,2.058q.437.088.874.172a15.543,15.543,0,0,1,4.975,1.484,3.789,3.789,0,0,1,2.017,3.613c0,2.991-2.532,4.695-6.965,4.695-4.244,0-6.877-2.113-7.162-5.9ZM29.762.487V0H26.021V30.233h3.741v-5.7L33.7,20.689l7.034,9.349.146.194h4.654l-.594-.782-8.59-11.324,7.922-7.891L45.11,9.4H40.026l-.143.144-10.12,10.2ZM64.985,21.06h.462l.029-.459q.023-.372.035-.744c0-.127.005-.242.005-.344,0-6.147-4.086-10.676-10.124-10.676s-10.32,4.821-10.32,10.911c0,6.267,4.1,10.95,10.36,10.95a9.832,9.832,0,0,0,9.709-7.044l.2-.634H61.414l-.116.325a5.983,5.983,0,0,1-5.828,3.866c-3.607,0-6.123-2.469-6.576-6.151H64.986Zm-16.2-2.921c.632-3.355,3.041-5.582,6.321-5.582,3.381,0,5.714,2.153,6.225,5.582H48.789Zm28.787-5.465h.486V9.366H73.5V3.721H69.76V9.366h-3.78v3.309h3.78V24.335c0,3.825,1.986,5.9,5.632,5.9a12.016,12.016,0,0,0,1.645-.1,4.929,4.929,0,0,0,.589-.111l.357-.1V26.456l-.591.128q-.26.053-.523.091a8.219,8.219,0,0,1-1.127.092c-1.6,0-2.241-.749-2.241-2.628V12.675ZM89.179,30.7a9.5,9.5,0,0,0,9.677-7.956l.114-.585H95.226l-.1.364a5.814,5.814,0,0,1-5.952,4.689c-3.809,0-6.438-3.044-6.438-7.423,0-4.413,2.623-7.463,6.438-7.463a5.815,5.815,0,0,1,5.952,4.69l.1.364h3.745l-.114-.585a9.5,9.5,0,0,0-9.677-7.956c-5.969,0-10.188,4.855-10.188,10.95C78.991,25.849,83.217,30.7,89.179,30.7ZM105.957.486V0h-3.733V30.233h3.733V18c0-3.577,2.171-5.676,5.465-5.676,3.146,0,4.726,1.827,4.726,5.286v12.62h3.733V17.066c0-4.887-3.016-8.134-7.992-8.134a8.167,8.167,0,0,0-5.932,2.291V.487Z" transform="translate(55.759 5.116)" fill-rule="evenodd"/>
  <path id="Path_445" data-name="Path 445" d="M9.732,1.317,22.3,0,34.874,1.317l9.733,12.946L22.3,40,0,14.263Z" transform="translate(0 0)" fill="#fdb300" fill-rule="evenodd"/>
  <path id="Path_446" data-name="Path 446" d="M9.034,0,22.3,25.581,0,0Z" transform="translate(0 14.419)" fill="#ea6c00" fill-rule="evenodd"/>
  <path id="Path_447" data-name="Path 447" d="M9.033,25.581,22.3,0,0,25.581Z" transform="translate(44.609 40) rotate(180)" fill="#ea6c00" fill-rule="evenodd"/>
  <path id="Path_448" data-name="Path 448" d="M0,0H26.485L13.243,25.581Z" transform="translate(8.832 14.419)" fill="#fdad00" fill-rule="evenodd"/>
  <path id="Path_449" data-name="Path 449" d="M13.01,0,.684,1.331,0,14.419Z" transform="translate(8.832 0)" fill="#fdd231" fill-rule="evenodd"/>
  <path id="Path_450" data-name="Path 450" d="M13.01,14.419.684,13.088,0,0Z" transform="translate(35.31 14.419) rotate(180)" fill="#fdd231" fill-rule="evenodd"/>
  <path id="Path_451" data-name="Path 451" d="M0,0,9.758,13.024,9.058,0Z" transform="translate(44.609 14.419) rotate(180)" fill="#fdad00" fill-rule="evenodd"/>
  <g id="Group_11" data-name="Group 11" transform="translate(0 1.395)">
    <path id="Path_452" data-name="Path 452" d="M0,13.024,9.757,0l-.7,13.024Z" fill="#fdad00" fill-rule="evenodd"/>
  </g>
  <g id="Group_12" data-name="Group 12" transform="translate(8.832 0)">
    <path id="Path_453" data-name="Path 453" d="M13.243,0,0,14.419H26.485Z" fill="#feeeb7" fill-rule="evenodd"/>
  </g>
</svg>
