<svg id="Group_2" data-name="Group 2" xmlns="http://www.w3.org/2000/svg" xmlns:xlink="http://www.w3.org/1999/xlink" width="51.282" height="50" viewBox="0 0 51.282 50">
  <defs>
    <clipPath id="clip-path">
      <rect id="Rectangle_46" data-name="Rectangle 46" width="51.282" height="50" fill="none"/>
    </clipPath>
  </defs>
  <g id="Group_1" data-name="Group 1" clip-path="url(#clip-path)">
    <path id="Path_409" data-name="Path 409" d="M42.2,50H9.081A9.073,9.073,0,0,1,0,40.919V9.081A9.073,9.073,0,0,1,9.081,0H42.2a9.073,9.073,0,0,1,9.081,9.081V40.919A9.073,9.073,0,0,1,42.2,50" fill="#ff26be"/>
    <path id="Path_410" data-name="Path 410" d="M143.451,149.925h-31.5a7.77,7.77,0,0,1-7.756-7.756V111.956a7.77,7.77,0,0,1,7.756-7.756h31.475a7.755,7.755,0,0,1,7.756,7.756v30.193a7.743,7.743,0,0,1-7.735,7.776" transform="translate(-102.063 -102.063)" fill="#2e001f"/>
    <path id="Path_411" data-name="Path 411" d="M477.393,604.037l5.984,11.5c.107.17.043.343-.129.343h-3.719a.419.419,0,0,1-.449-.277c-1.368-2.821-2.757-5.641-4.189-8.675h-.043c-1.282,2.864-2.693,5.877-4.059,8.7a.412.412,0,0,1-.386.236h-3.522c-.213,0-.236-.17-.127-.3l5.854-11.155-5.662-11.282a.173.173,0,0,1,.127-.3h3.676c.213,0,.3.043.384.236,1.346,2.821,2.714,5.727,4,8.568h.043c1.239-2.821,2.607-5.748,3.932-8.548.107-.17.17-.277.386-.277h3.44c.17,0,.236.129.129.3Zm7.032,3.483c0-4.979,3.313-8.868,8.568-8.868a9.417,9.417,0,0,1,1.112.043v-5.662a.213.213,0,0,1,.213-.213h3.376c.17,0,.213.064.213.17v19.616a15.258,15.258,0,0,0,.107,2.094c0,.129-.043.17-.17.236a12.72,12.72,0,0,1-5.471,1.239c-4.638.018-7.951-2.843-7.949-8.656m9.678-5.469a3.211,3.211,0,0,0-1.239-.213c-2.693,0-4.572,2.072-4.572,5.514,0,3.932,1.924,5.514,4.339,5.514a4,4,0,0,0,1.475-.236V602.051Z" transform="translate(-457.116 -580.64)" fill="#ffd9f2"/>
  </g>
</svg>
