<svg xmlns="http://www.w3.org/2000/svg" width="66.04" height="47" viewBox="0 0 66.04 47">
  <g id="youtube" transform="translate(1 1)">
    <path id="Path_404" data-name="Path 404" d="M63.7,11.044a8.092,8.092,0,0,0-5.647-5.821C53.045,4,33.019,4,33.019,4S12.993,4,7.987,5.339A8.092,8.092,0,0,0,2.34,11.16,84.411,84.411,0,0,0,1,26.558,84.411,84.411,0,0,0,2.34,42.072a8.092,8.092,0,0,0,5.647,5.589C12.993,49,33.019,49,33.019,49s20.026,0,25.032-1.339A8.092,8.092,0,0,0,63.7,41.84a84.411,84.411,0,0,0,1.339-15.281A84.412,84.412,0,0,0,63.7,11.044Z" transform="translate(-0.999 -4)" fill="none" stroke="#000" stroke-linecap="round" stroke-linejoin="round" stroke-width="2"/>
    <path id="Path_405" data-name="Path 405" d="M9.75,27.516,26.487,18,9.75,8.48Z" transform="translate(15.721 4.56)" fill="none" stroke="#000" stroke-linecap="round" stroke-linejoin="round" stroke-width="2"/>
  </g>
</svg>
